<svg width="269" height="35" viewBox="0 0 269 35" fill="none" xmlns="http://www.w3.org/2000/svg">
<path d="M37.125 16.4844L35.0625 32.4688L31.7344 32.0469L35.5781 2.53906C36.1094 2.39844 36.6328 2.28906 37.1484 2.21094C37.6641 2.13281 38.1484 2.07812 38.6016 2.04688C39.0547 2 39.4609 1.97656 39.8203 1.97656C40.1797 1.96094 40.4766 1.95312 40.7109 1.95312C41.1953 1.95312 41.9062 1.98438 42.8438 2.04688C43.7969 2.10938 44.8203 2.27344 45.9141 2.53906L49.6875 32.0469L46.3828 32.4688L44.3203 16.4844H37.125ZM40.7109 5.02344C40.3359 5.02344 39.9609 5.04688 39.5859 5.09375C39.2109 5.125 38.8672 5.17969 38.5547 5.25781L37.5 13.4141H43.8516L42.8906 5.25781C42.5781 5.17969 42.2344 5.125 41.8594 5.09375C41.4844 5.04688 41.1016 5.02344 40.7109 5.02344Z" fill="#FCFCFC"/>
<path d="M53.0391 12.125C53.4609 11.875 53.9453 11.6172 54.4922 11.3516C55.0547 11.0859 55.6797 10.8516 56.3672 10.6484C57.0703 10.4297 57.8281 10.2578 58.6406 10.1328C59.4688 9.99219 60.3672 9.92188 61.3359 9.92188C61.9453 9.92188 62.6016 9.96875 63.3047 10.0625C64.0078 10.1406 64.6953 10.3125 65.3672 10.5781C66.0547 10.8438 66.6953 11.2266 67.2891 11.7266C67.8828 12.2266 68.3828 12.8906 68.7891 13.7188C68.9453 14.0781 69.0781 14.4844 69.1875 14.9375C69.2969 15.3906 69.3828 15.9453 69.4453 16.6016C69.5234 17.2578 69.5781 18.0469 69.6094 18.9688C69.6406 19.875 69.6562 20.9688 69.6562 22.25V32H66.5859V22.1562C66.5859 21.1094 66.5703 20.1953 66.5391 19.4141C66.5234 18.6172 66.4844 17.9297 66.4219 17.3516C66.3594 16.7578 66.2656 16.2578 66.1406 15.8516C66.0156 15.4297 65.8594 15.0703 65.6719 14.7734C65.5312 14.5547 65.3438 14.3281 65.1094 14.0938C64.875 13.8594 64.5703 13.6484 64.1953 13.4609C63.8359 13.2734 63.3984 13.1172 62.8828 12.9922C62.3828 12.8672 61.7891 12.8047 61.1016 12.8047C60.3359 12.8047 59.6328 12.875 58.9922 13.0156C58.3672 13.1406 57.7891 13.3125 57.2578 13.5312V32H54.1875V14.4688L53.0391 12.125Z" fill="#FCFCFC"/>
<path d="M78.5859 2.42188V6.03125H75.1406V2.42188H78.5859ZM78.3984 10.3906V32H75.3281V13.4141L74.3672 10.3906H78.3984Z" fill="#FCFCFC"/>
<path d="M83.0391 13.0859C84.8203 12.0078 86.7734 11.2109 88.8984 10.6953C91.0234 10.1797 93.2656 9.92188 95.625 9.92188C96.0469 9.92188 96.6172 9.94531 97.3359 9.99219C98.0703 10.0234 98.8516 10.125 99.6797 10.2969C100.523 10.4688 101.367 10.7344 102.211 11.0938C103.055 11.4375 103.805 11.9141 104.461 12.5234C105.055 13.1016 105.523 13.7266 105.867 14.3984C106.211 15.0547 106.461 15.7344 106.617 16.4375C106.789 17.125 106.891 17.8203 106.922 18.5234C106.969 19.2266 106.992 19.9141 106.992 20.5859V32H103.969V22.25C103.969 21.6562 103.961 21.0156 103.945 20.3281C103.945 19.625 103.891 18.9297 103.781 18.2422C103.688 17.5547 103.523 16.9062 103.289 16.2969C103.07 15.6719 102.742 15.1328 102.305 14.6797C102.008 14.3828 101.648 14.1172 101.227 13.8828C100.82 13.6484 100.383 13.4531 99.9141 13.2969C99.4609 13.1406 99 13.0234 98.5312 12.9453C98.0781 12.8516 97.6562 12.8047 97.2656 12.8047V32H94.1719V12.8047C93.0469 12.8047 91.9062 12.9141 90.75 13.1328C89.5938 13.3359 88.5 13.6562 87.4688 14.0938V32H84.3984V15.4297L83.0391 13.0859Z" fill="#FCFCFC"/>
<path d="M123.727 19.1797C123.727 18.8359 123.719 18.4609 123.703 18.0547C123.703 17.6328 123.672 17.2109 123.609 16.7891C123.562 16.3672 123.477 15.9531 123.352 15.5469C123.242 15.125 123.078 14.75 122.859 14.4219C122.75 14.2656 122.602 14.0938 122.414 13.9062C122.242 13.7188 122.023 13.5469 121.758 13.3906C121.492 13.2188 121.172 13.0781 120.797 12.9688C120.422 12.8594 119.992 12.8047 119.508 12.8047C119.039 12.8047 118.617 12.8594 118.242 12.9688C117.883 13.0781 117.562 13.2188 117.281 13.3906C117.016 13.5469 116.789 13.7188 116.602 13.9062C116.43 14.0938 116.289 14.2656 116.18 14.4219C115.961 14.7656 115.789 15.1406 115.664 15.5469C115.555 15.9531 115.477 16.375 115.43 16.8125C115.383 17.2344 115.352 17.6484 115.336 18.0547C115.336 18.4609 115.336 18.8359 115.336 19.1797H123.727ZM115.336 22.0625V28.3438C116.086 28.8438 116.891 29.1797 117.75 29.3516C118.609 29.5234 119.414 29.6094 120.164 29.6094C121.539 29.6094 122.773 29.4609 123.867 29.1641C124.977 28.8516 126.047 28.3438 127.078 27.6406V30.8516C126.094 31.4297 125.039 31.8438 123.914 32.0938C122.789 32.3438 121.562 32.4688 120.234 32.4688C118.188 32.4688 116.391 32.1875 114.844 31.625C113.297 31.0469 111.891 30.1953 110.625 29.0703L112.266 27.1016V18.4531C112.266 18 112.281 17.5078 112.312 16.9766C112.344 16.4297 112.414 15.875 112.523 15.3125C112.648 14.7344 112.836 14.1719 113.086 13.625C113.336 13.0625 113.68 12.5312 114.117 12.0312C114.555 11.5469 115.008 11.1641 115.477 10.8828C115.961 10.6016 116.445 10.3906 116.93 10.25C117.414 10.1094 117.883 10.0234 118.336 9.99219C118.805 9.94531 119.242 9.92188 119.648 9.92188C120.039 9.92188 120.469 9.94531 120.938 9.99219C121.406 10.0234 121.883 10.1094 122.367 10.25C122.852 10.3906 123.328 10.6016 123.797 10.8828C124.281 11.1641 124.734 11.5469 125.156 12.0312C125.656 12.6094 126.039 13.2344 126.305 13.9062C126.57 14.5625 126.758 15.2188 126.867 15.875C126.992 16.5156 127.055 17.1328 127.055 17.7266C127.07 18.3203 127.078 18.8359 127.078 19.2734V22.0625H115.336Z" fill="#FCFCFC"/>
<path d="M144.07 14.3281C143.164 13.8594 142.281 13.5078 141.422 13.2734C140.578 13.0234 139.617 12.8984 138.539 12.8984C138.008 12.8984 137.508 12.9453 137.039 13.0391C136.586 13.1328 136.188 13.2969 135.844 13.5312C135.5 13.75 135.227 14.0469 135.023 14.4219C134.82 14.7969 134.719 15.2656 134.719 15.8281C134.719 16.2656 134.789 16.6484 134.93 16.9766C135.086 17.3047 135.297 17.6016 135.562 17.8672C135.844 18.1328 136.164 18.375 136.523 18.5938C136.883 18.8125 137.273 19.0234 137.695 19.2266L140.859 20.7734C142.25 21.4609 143.344 22.2422 144.141 23.1172C144.953 23.9766 145.359 25.0469 145.359 26.3281V27.4297L147 29.3984C146.297 30.0391 145.57 30.5625 144.82 30.9688C144.086 31.3594 143.344 31.6719 142.594 31.9062C141.844 32.125 141.102 32.2734 140.367 32.3516C139.633 32.4297 138.914 32.4688 138.211 32.4688C136.789 32.4688 135.531 32.3516 134.438 32.1172C133.359 31.8984 132.422 31.6172 131.625 31.2734V28.2031C132.062 28.3906 132.508 28.5703 132.961 28.7422C133.43 28.9141 133.922 29.0703 134.438 29.2109C134.953 29.3359 135.508 29.4375 136.102 29.5156C136.711 29.5781 137.383 29.6094 138.117 29.6094C139.008 29.6094 139.812 29.5156 140.531 29.3281C141.266 29.1406 141.852 28.8828 142.289 28.5547V27.5938C142.289 27.1094 142.242 26.6719 142.148 26.2812C142.055 25.8906 141.891 25.5312 141.656 25.2031C141.438 24.875 141.133 24.5625 140.742 24.2656C140.352 23.9688 139.859 23.6641 139.266 23.3516L135.562 21.5469C135.031 21.2969 134.523 21.0078 134.039 20.6797C133.57 20.3516 133.156 19.9609 132.797 19.5078C132.438 19.0547 132.148 18.5312 131.93 17.9375C131.727 17.3281 131.625 16.625 131.625 15.8281C131.625 14.9375 131.781 14.1328 132.094 13.4141C132.406 12.6797 132.859 12.0547 133.453 11.5391C134.062 11.0234 134.789 10.625 135.633 10.3438C136.492 10.0625 137.461 9.92188 138.539 9.92188C139.914 9.92188 141.164 10.0859 142.289 10.4141C143.414 10.7422 144.422 11.1562 145.312 11.6562L144.07 14.3281Z" fill="#FCFCFC"/>
<path d="M168.609 29.3984C169.781 29.3984 170.812 29.2812 171.703 29.0469C172.594 28.7969 173.398 28.4219 174.117 27.9219V13.0391C174.117 12.0703 174.047 11.1094 173.906 10.1562C173.766 9.1875 173.492 8.32812 173.086 7.57812C172.68 6.8125 172.117 6.19531 171.398 5.72656C170.68 5.25781 169.75 5.02344 168.609 5.02344C167.453 5.02344 166.516 5.25781 165.797 5.72656C165.078 6.19531 164.516 6.8125 164.109 7.57812C163.703 8.32812 163.43 9.1875 163.289 10.1562C163.148 11.1094 163.078 12.0703 163.078 13.0391V27.9219C163.828 28.4219 164.641 28.7969 165.516 29.0469C166.406 29.2812 167.438 29.3984 168.609 29.3984ZM168.609 1.95312C170.281 1.95312 171.68 2.25 172.805 2.84375C173.945 3.42188 174.859 4.21094 175.547 5.21094C176.25 6.21094 176.75 7.39062 177.047 8.75C177.344 10.0938 177.492 11.5234 177.492 13.0391V26.375L179.203 28.6016C178.672 29.0547 178.062 29.5156 177.375 29.9844C176.688 30.4375 175.906 30.8516 175.031 31.2266C174.172 31.5859 173.203 31.8828 172.125 32.1172C171.062 32.3516 169.891 32.4688 168.609 32.4688C167.438 32.4688 166.383 32.375 165.445 32.1875C164.508 32.0156 163.672 31.7969 162.938 31.5312C162.219 31.2656 161.594 30.9766 161.062 30.6641C160.531 30.3516 160.086 30.0625 159.727 29.7969V13.0391C159.727 11.5234 159.875 10.0938 160.172 8.75C160.469 7.39062 160.961 6.21094 161.648 5.21094C162.336 4.21094 163.242 3.42188 164.367 2.84375C165.508 2.25 166.922 1.95312 168.609 1.95312Z" fill="#FCFCFC"/>
<path d="M182.602 12.125C183.023 11.875 183.508 11.6172 184.055 11.3516C184.617 11.0859 185.242 10.8516 185.93 10.6484C186.633 10.4297 187.391 10.2578 188.203 10.1328C189.031 9.99219 189.93 9.92188 190.898 9.92188C191.508 9.92188 192.164 9.96875 192.867 10.0625C193.57 10.1406 194.258 10.3125 194.93 10.5781C195.617 10.8438 196.258 11.2266 196.852 11.7266C197.445 12.2266 197.945 12.8906 198.352 13.7188C198.508 14.0781 198.641 14.4844 198.75 14.9375C198.859 15.3906 198.945 15.9453 199.008 16.6016C199.086 17.2578 199.141 18.0469 199.172 18.9688C199.203 19.875 199.219 20.9688 199.219 22.25V32H196.148V22.1562C196.148 21.1094 196.133 20.1953 196.102 19.4141C196.086 18.6172 196.047 17.9297 195.984 17.3516C195.922 16.7578 195.828 16.2578 195.703 15.8516C195.578 15.4297 195.422 15.0703 195.234 14.7734C195.094 14.5547 194.906 14.3281 194.672 14.0938C194.438 13.8594 194.133 13.6484 193.758 13.4609C193.398 13.2734 192.961 13.1172 192.445 12.9922C191.945 12.8672 191.352 12.8047 190.664 12.8047C189.898 12.8047 189.195 12.875 188.555 13.0156C187.93 13.1406 187.352 13.3125 186.82 13.5312V32H183.75V14.4688L182.602 12.125Z" fill="#FCFCFC"/>
<path d="M207.68 0.570312V19.5781C207.68 20.8906 207.719 22.0469 207.797 23.0469C207.891 24.0312 208.094 24.9219 208.406 25.7188C208.734 26.5156 209.211 27.25 209.836 27.9219C210.477 28.5938 211.344 29.2656 212.438 29.9375L210.844 32.4688C209.531 31.7656 208.461 31.0078 207.633 30.1953C206.82 29.3828 206.188 28.4688 205.734 27.4531C205.297 26.4219 205 25.2656 204.844 23.9844C204.688 22.7031 204.609 21.2344 204.609 19.5781V3.59375L203.648 0.570312H207.68Z" fill="#FCFCFC"/>
<path d="M218.883 2.42188V6.03125H215.438V2.42188H218.883ZM218.695 10.3906V32H215.625V13.4141L214.664 10.3906H218.695Z" fill="#FCFCFC"/>
<path d="M223.477 12.125C223.898 11.875 224.383 11.6172 224.93 11.3516C225.492 11.0859 226.117 10.8516 226.805 10.6484C227.508 10.4297 228.266 10.2578 229.078 10.1328C229.906 9.99219 230.805 9.92188 231.773 9.92188C232.383 9.92188 233.039 9.96875 233.742 10.0625C234.445 10.1406 235.133 10.3125 235.805 10.5781C236.492 10.8438 237.133 11.2266 237.727 11.7266C238.32 12.2266 238.82 12.8906 239.227 13.7188C239.383 14.0781 239.516 14.4844 239.625 14.9375C239.734 15.3906 239.82 15.9453 239.883 16.6016C239.961 17.2578 240.016 18.0469 240.047 18.9688C240.078 19.875 240.094 20.9688 240.094 22.25V32H237.023V22.1562C237.023 21.1094 237.008 20.1953 236.977 19.4141C236.961 18.6172 236.922 17.9297 236.859 17.3516C236.797 16.7578 236.703 16.2578 236.578 15.8516C236.453 15.4297 236.297 15.0703 236.109 14.7734C235.969 14.5547 235.781 14.3281 235.547 14.0938C235.312 13.8594 235.008 13.6484 234.633 13.4609C234.273 13.2734 233.836 13.1172 233.32 12.9922C232.82 12.8672 232.227 12.8047 231.539 12.8047C230.773 12.8047 230.07 12.875 229.43 13.0156C228.805 13.1406 228.227 13.3125 227.695 13.5312V32H224.625V14.4688L223.477 12.125Z" fill="#FCFCFC"/>
<path d="M256.898 19.1797C256.898 18.8359 256.891 18.4609 256.875 18.0547C256.875 17.6328 256.844 17.2109 256.781 16.7891C256.734 16.3672 256.648 15.9531 256.523 15.5469C256.414 15.125 256.25 14.75 256.031 14.4219C255.922 14.2656 255.773 14.0938 255.586 13.9062C255.414 13.7188 255.195 13.5469 254.93 13.3906C254.664 13.2188 254.344 13.0781 253.969 12.9688C253.594 12.8594 253.164 12.8047 252.68 12.8047C252.211 12.8047 251.789 12.8594 251.414 12.9688C251.055 13.0781 250.734 13.2188 250.453 13.3906C250.188 13.5469 249.961 13.7188 249.773 13.9062C249.602 14.0938 249.461 14.2656 249.352 14.4219C249.133 14.7656 248.961 15.1406 248.836 15.5469C248.727 15.9531 248.648 16.375 248.602 16.8125C248.555 17.2344 248.523 17.6484 248.508 18.0547C248.508 18.4609 248.508 18.8359 248.508 19.1797H256.898ZM248.508 22.0625V28.3438C249.258 28.8438 250.062 29.1797 250.922 29.3516C251.781 29.5234 252.586 29.6094 253.336 29.6094C254.711 29.6094 255.945 29.4609 257.039 29.1641C258.148 28.8516 259.219 28.3438 260.25 27.6406V30.8516C259.266 31.4297 258.211 31.8438 257.086 32.0938C255.961 32.3438 254.734 32.4688 253.406 32.4688C251.359 32.4688 249.562 32.1875 248.016 31.625C246.469 31.0469 245.062 30.1953 243.797 29.0703L245.438 27.1016V18.4531C245.438 18 245.453 17.5078 245.484 16.9766C245.516 16.4297 245.586 15.875 245.695 15.3125C245.82 14.7344 246.008 14.1719 246.258 13.625C246.508 13.0625 246.852 12.5312 247.289 12.0312C247.727 11.5469 248.18 11.1641 248.648 10.8828C249.133 10.6016 249.617 10.3906 250.102 10.25C250.586 10.1094 251.055 10.0234 251.508 9.99219C251.977 9.94531 252.414 9.92188 252.82 9.92188C253.211 9.92188 253.641 9.94531 254.109 9.99219C254.578 10.0234 255.055 10.1094 255.539 10.25C256.023 10.3906 256.5 10.6016 256.969 10.8828C257.453 11.1641 257.906 11.5469 258.328 12.0312C258.828 12.6094 259.211 13.2344 259.477 13.9062C259.742 14.5625 259.93 15.2188 260.039 15.875C260.164 16.5156 260.227 17.1328 260.227 17.7266C260.242 18.3203 260.25 18.8359 260.25 19.2734V22.0625H248.508Z" fill="#FCFCFC"/>
<path d="M268.898 27.9688V32H264.867V27.9688H268.898Z" fill="#FCFCFC"/>
<path d="M25.4232 18.1614C25.056 17.3551 24.6375 16.4417 24.2311 15.3139C23.1646 12.3618 26.572 9.14171 26.6044 9.1118L24.6955 7.34974C24.5065 7.5242 20.0745 11.6839 21.6688 16.1015C22.1089 17.3202 22.549 18.2822 22.9351 19.1296C23.8361 20.7728 24.3038 22.5892 24.3 24.4308C24.1418 25.9152 23.5244 27.3263 22.5215 28.4958C21.5185 29.6653 20.1724 30.5438 18.6435 31.0267C19.1265 29.2792 19.1193 27.4469 18.6226 25.7027C18.1258 23.9585 17.156 22.3598 15.8044 21.0574L14.395 19.7564L13.6093 21.4475C11.1307 26.786 8.181 29.1163 6.44625 30.0883C5.3813 29.4863 4.48639 28.6595 3.83512 27.6759C3.18384 26.6924 2.7948 25.5802 2.7 24.4308C2.79312 22.8621 3.21924 21.3255 3.95415 19.9085C4.82571 18.2003 5.31736 16.3481 5.4 14.4615V12.2459C6.5799 12.6945 8.1 13.8696 8.1 16.9538V20.1976L10.453 17.7875C14.6542 13.4833 13.7781 8.35788 12.0811 4.94217C13.3711 5.33907 14.4788 6.1251 15.2259 7.17373C15.973 8.22236 16.3161 9.47257 16.2 10.7231H18.9C18.9 3.82312 12.7183 2 9.45 2H6.75L8.37 3.9926C8.55495 4.22314 12.2337 8.88625 10.1965 13.573C9.74322 12.3953 8.91246 11.3727 7.8146 10.641C6.71675 9.90942 5.40375 9.50341 4.05 9.47692H2.7V14.4615C2.60687 16.0302 2.18075 17.5668 1.44585 18.9838C0.574284 20.692 0.0826428 22.5442 0 24.4308C0 29.226 5.16105 34.4 13.5 34.4C21.8389 34.4 27 29.226 27 24.4308C27.002 22.257 26.4625 20.112 25.4232 18.1614ZM9.22725 31.317C10.5098 30.337 11.6654 29.2303 12.675 28.0196C13.6257 26.8794 14.4469 25.647 15.1227 24.341C15.8666 25.4498 16.2893 26.7166 16.35 28.0196C16.4108 29.3226 16.1076 30.6181 15.4696 31.7818C14.8167 31.8629 14.1588 31.905 13.5 31.9077C12.0512 31.9169 10.6096 31.7176 9.22725 31.317Z" fill="#DD0000"/>
</svg>
