<svg width="25" height="24" viewBox="0 0 25 24" fill="none" xmlns="http://www.w3.org/2000/svg">
<rect width="25" height="24" fill="#E5E5E5"/>
<g clip-path="url(#clip0_0_1)">
<rect width="1440" height="3187" transform="translate(-389 -3123)" fill="#070707"/>
<rect x="-417.5" y="-72.5" width="1494" height="131" stroke="#FF9900" stroke-width="7" stroke-dasharray="14 14"/>
<path d="M23.6201 0H1.37986C1.0139 0 0.662926 0.138266 0.404152 0.384382C0.145378 0.630497 0 0.964302 0 1.31236V22.465C9.20739e-05 22.813 0.145511 23.1467 0.404275 23.3928C0.663039 23.6388 1.01396 23.7771 1.37986 23.7771H13.3531V14.5694H10.0951V10.981H13.3531V8.33452C13.3531 5.26332 15.3253 3.59133 18.2059 3.59133C19.5858 3.59133 20.7715 3.68875 21.1174 3.73267V6.94224L19.1194 6.94323C17.5528 6.94323 17.2497 7.65126 17.2497 8.69018V10.9814H20.9858L20.4993 14.5697H17.2497V23.7771H23.6205C23.9864 23.777 24.3373 23.6387 24.596 23.3926C24.8547 23.1465 25 22.8127 25 22.4647V1.31236C25 0.964302 24.8546 0.630497 24.5958 0.384382C24.3371 0.138266 23.9861 0 23.6201 0V0Z" fill="#FCFCFC"/>
</g>
<defs>
<clipPath id="clip0_0_1">
<rect width="1440" height="3187" fill="white" transform="translate(-389 -3123)"/>
</clipPath>
</defs>
</svg>
