<svg width="26" height="24" viewBox="0 0 26 24" fill="none" xmlns="http://www.w3.org/2000/svg">
<path fill-rule="evenodd" clip-rule="evenodd" d="M3.21525e-07 2.00509C3.21525e-07 1.47331 0.228854 0.963308 0.636218 0.58728C1.04358 0.211253 1.59608 2.67307e-06 2.17218 2.67307e-06H23.8255C24.111 -0.000427747 24.3937 0.0511258 24.6576 0.151712C24.9215 0.252298 25.1613 0.399941 25.3633 0.586188C25.5653 0.772435 25.7255 0.993628 25.8347 1.2371C25.944 1.48058 26.0002 1.74156 26 2.00509V21.9927C26.0003 22.2563 25.9443 22.5174 25.8352 22.761C25.7261 23.0046 25.5661 23.2259 25.3642 23.4123C25.1623 23.5988 24.9226 23.7466 24.6588 23.8475C24.395 23.9483 24.1122 24.0001 23.8266 24H2.17218C1.88683 24 1.60427 23.9481 1.34065 23.8473C1.07703 23.7464 0.837521 23.5986 0.6358 23.4123C0.434078 23.226 0.274101 23.0049 0.165009 22.7615C0.0559157 22.5181 -0.000154931 22.2572 3.21525e-07 21.9938V2.00509ZM10.2913 9.15055H13.8119V10.7825C14.3201 9.84437 15.6201 9 17.5736 9C21.3188 9 22.2064 10.8687 22.2064 14.2975V20.6487H18.4163V15.0785C18.4163 13.1258 17.9081 12.024 16.6175 12.024C14.8271 12.024 14.0825 13.212 14.0825 15.0785V20.6487H10.2913V9.15055ZM3.79127 20.4993H7.58255V9H3.79127V20.4982V20.4993ZM8.125 5.24946C8.13215 5.5491 8.07439 5.84704 7.9551 6.1258C7.83582 6.40456 7.65742 6.65851 7.43036 6.87276C7.20331 7.08702 6.93219 7.25725 6.6329 7.37346C6.33361 7.48968 6.01219 7.54955 5.6875 7.54955C5.36281 7.54955 5.04139 7.48968 4.7421 7.37346C4.44281 7.25725 4.17169 7.08702 3.94464 6.87276C3.71759 6.65851 3.53918 6.40456 3.4199 6.1258C3.30061 5.84704 3.24285 5.5491 3.25 5.24946C3.26403 4.6613 3.527 4.10159 3.98259 3.69021C4.43818 3.27882 5.05017 3.04846 5.6875 3.04846C6.32483 3.04846 6.93682 3.27882 7.39241 3.69021C7.848 4.10159 8.11097 4.6613 8.125 5.24946Z" fill="#F8F8F8"/>
</svg>
