<svg width="274" height="47" viewBox="0 0 274 47" fill="none" xmlns="http://www.w3.org/2000/svg">
<path d="M37.125 24.4844L35.0625 40.4688L31.7344 40.0469L35.5781 10.5391C36.1094 10.3984 36.6328 10.2891 37.1484 10.2109C37.6641 10.1328 38.1484 10.0781 38.6016 10.0469C39.0547 10 39.4609 9.97656 39.8203 9.97656C40.1797 9.96094 40.4766 9.95312 40.7109 9.95312C41.1953 9.95312 41.9062 9.98437 42.8438 10.0469C43.7969 10.1094 44.8203 10.2734 45.9141 10.5391L49.6875 40.0469L46.3828 40.4688L44.3203 24.4844H37.125ZM40.7109 13.0234C40.3359 13.0234 39.9609 13.0469 39.5859 13.0938C39.2109 13.125 38.8672 13.1797 38.5547 13.2578L37.5 21.4141H43.8516L42.8906 13.2578C42.5781 13.1797 42.2344 13.125 41.8594 13.0938C41.4844 13.0469 41.1016 13.0234 40.7109 13.0234ZM53.0391 20.125C53.4609 19.875 53.9453 19.6172 54.4922 19.3516C55.0547 19.0859 55.6797 18.8516 56.3672 18.6484C57.0703 18.4297 57.8281 18.2578 58.6406 18.1328C59.4688 17.9922 60.3672 17.9219 61.3359 17.9219C61.9453 17.9219 62.6016 17.9688 63.3047 18.0625C64.0078 18.1406 64.6953 18.3125 65.3672 18.5781C66.0547 18.8438 66.6953 19.2266 67.2891 19.7266C67.8828 20.2266 68.3828 20.8906 68.7891 21.7188C68.9453 22.0781 69.0781 22.4844 69.1875 22.9375C69.2969 23.3906 69.3828 23.9453 69.4453 24.6016C69.5234 25.2578 69.5781 26.0469 69.6094 26.9688C69.6406 27.875 69.6562 28.9688 69.6562 30.25V40H66.5859V30.1562C66.5859 29.1094 66.5703 28.1953 66.5391 27.4141C66.5234 26.6172 66.4844 25.9297 66.4219 25.3516C66.3594 24.7578 66.2656 24.2578 66.1406 23.8516C66.0156 23.4297 65.8594 23.0703 65.6719 22.7734C65.5312 22.5547 65.3438 22.3281 65.1094 22.0938C64.875 21.8594 64.5703 21.6484 64.1953 21.4609C63.8359 21.2734 63.3984 21.1172 62.8828 20.9922C62.3828 20.8672 61.7891 20.8047 61.1016 20.8047C60.3359 20.8047 59.6328 20.875 58.9922 21.0156C58.3672 21.1406 57.7891 21.3125 57.2578 21.5312V40H54.1875V22.4688L53.0391 20.125ZM78.5859 10.4219V14.0312H75.1406V10.4219H78.5859ZM78.3984 18.3906V40H75.3281V21.4141L74.3672 18.3906H78.3984ZM83.0391 21.0859C84.8203 20.0078 86.7734 19.2109 88.8984 18.6953C91.0234 18.1797 93.2656 17.9219 95.625 17.9219C96.0469 17.9219 96.6172 17.9453 97.3359 17.9922C98.0703 18.0234 98.8516 18.125 99.6797 18.2969C100.523 18.4688 101.367 18.7344 102.211 19.0938C103.055 19.4375 103.805 19.9141 104.461 20.5234C105.055 21.1016 105.523 21.7266 105.867 22.3984C106.211 23.0547 106.461 23.7344 106.617 24.4375C106.789 25.125 106.891 25.8203 106.922 26.5234C106.969 27.2266 106.992 27.9141 106.992 28.5859V40H103.969V30.25C103.969 29.6562 103.961 29.0156 103.945 28.3281C103.945 27.625 103.891 26.9297 103.781 26.2422C103.688 25.5547 103.523 24.9062 103.289 24.2969C103.07 23.6719 102.742 23.1328 102.305 22.6797C102.008 22.3828 101.648 22.1172 101.227 21.8828C100.82 21.6484 100.383 21.4531 99.9141 21.2969C99.4609 21.1406 99 21.0234 98.5312 20.9453C98.0781 20.8516 97.6562 20.8047 97.2656 20.8047V40H94.1719V20.8047C93.0469 20.8047 91.9062 20.9141 90.75 21.1328C89.5938 21.3359 88.5 21.6562 87.4688 22.0938V40H84.3984V23.4297L83.0391 21.0859ZM123.727 27.1797C123.727 26.8359 123.719 26.4609 123.703 26.0547C123.703 25.6328 123.672 25.2109 123.609 24.7891C123.562 24.3672 123.477 23.9531 123.352 23.5469C123.242 23.125 123.078 22.75 122.859 22.4219C122.75 22.2656 122.602 22.0938 122.414 21.9062C122.242 21.7188 122.023 21.5469 121.758 21.3906C121.492 21.2188 121.172 21.0781 120.797 20.9688C120.422 20.8594 119.992 20.8047 119.508 20.8047C119.039 20.8047 118.617 20.8594 118.242 20.9688C117.883 21.0781 117.562 21.2188 117.281 21.3906C117.016 21.5469 116.789 21.7188 116.602 21.9062C116.43 22.0938 116.289 22.2656 116.18 22.4219C115.961 22.7656 115.789 23.1406 115.664 23.5469C115.555 23.9531 115.477 24.375 115.43 24.8125C115.383 25.2344 115.352 25.6484 115.336 26.0547C115.336 26.4609 115.336 26.8359 115.336 27.1797H123.727ZM115.336 30.0625V36.3438C116.086 36.8438 116.891 37.1797 117.75 37.3516C118.609 37.5234 119.414 37.6094 120.164 37.6094C121.539 37.6094 122.773 37.4609 123.867 37.1641C124.977 36.8516 126.047 36.3438 127.078 35.6406V38.8516C126.094 39.4297 125.039 39.8438 123.914 40.0938C122.789 40.3438 121.562 40.4688 120.234 40.4688C118.188 40.4688 116.391 40.1875 114.844 39.625C113.297 39.0469 111.891 38.1953 110.625 37.0703L112.266 35.1016V27.2734V26.4531C112.266 26 112.281 25.5078 112.312 24.9766C112.344 24.4297 112.414 23.875 112.523 23.3125C112.648 22.7344 112.836 22.1719 113.086 21.625C113.336 21.0625 113.68 20.5312 114.117 20.0312C114.555 19.5469 115.008 19.1641 115.477 18.8828C115.961 18.6016 116.445 18.3906 116.93 18.25C117.414 18.1094 117.883 18.0234 118.336 17.9922C118.805 17.9453 119.242 17.9219 119.648 17.9219C120.039 17.9219 120.469 17.9453 120.938 17.9922C121.406 18.0234 121.883 18.1094 122.367 18.25C122.852 18.3906 123.328 18.6016 123.797 18.8828C124.281 19.1641 124.734 19.5469 125.156 20.0312C125.656 20.6094 126.039 21.2344 126.305 21.9062C126.57 22.5625 126.758 23.2188 126.867 23.875C126.992 24.5156 127.055 25.1328 127.055 25.7266C127.07 26.3203 127.078 26.8359 127.078 27.2734V30.0625H115.336ZM144.07 22.3281C143.164 21.8594 142.281 21.5078 141.422 21.2734C140.578 21.0234 139.617 20.8984 138.539 20.8984C138.008 20.8984 137.508 20.9453 137.039 21.0391C136.586 21.1328 136.188 21.2969 135.844 21.5312C135.5 21.75 135.227 22.0469 135.023 22.4219C134.82 22.7969 134.719 23.2656 134.719 23.8281C134.719 24.2656 134.789 24.6484 134.93 24.9766C135.086 25.3047 135.297 25.6016 135.562 25.8672C135.844 26.1328 136.164 26.375 136.523 26.5938C136.883 26.8125 137.273 27.0234 137.695 27.2266L140.859 28.7734C142.25 29.4609 143.344 30.2422 144.141 31.1172C144.953 31.9766 145.359 33.0469 145.359 34.3281V35.4297L147 37.3984C146.297 38.0391 145.57 38.5625 144.82 38.9688C144.086 39.3594 143.344 39.6719 142.594 39.9062C141.844 40.125 141.102 40.2734 140.367 40.3516C139.633 40.4297 138.914 40.4688 138.211 40.4688C136.789 40.4688 135.531 40.3516 134.438 40.1172C133.359 39.8984 132.422 39.6172 131.625 39.2734V36.2031C132.062 36.3906 132.508 36.5703 132.961 36.7422C133.43 36.9141 133.922 37.0703 134.438 37.2109C134.953 37.3359 135.508 37.4375 136.102 37.5156C136.711 37.5781 137.383 37.6094 138.117 37.6094C139.008 37.6094 139.812 37.5156 140.531 37.3281C141.266 37.1406 141.852 36.8828 142.289 36.5547V35.5938C142.289 35.1094 142.242 34.6719 142.148 34.2812C142.055 33.8906 141.891 33.5312 141.656 33.2031C141.438 32.875 141.133 32.5625 140.742 32.2656C140.352 31.9688 139.859 31.6641 139.266 31.3516L135.562 29.5469C135.031 29.2969 134.523 29.0078 134.039 28.6797C133.57 28.3516 133.156 27.9609 132.797 27.5078C132.438 27.0547 132.148 26.5312 131.93 25.9375C131.727 25.3281 131.625 24.625 131.625 23.8281C131.625 22.9375 131.781 22.1328 132.094 21.4141C132.406 20.6797 132.859 20.0547 133.453 19.5391C134.062 19.0234 134.789 18.625 135.633 18.3438C136.492 18.0625 137.461 17.9219 138.539 17.9219C139.914 17.9219 141.164 18.0859 142.289 18.4141C143.414 18.7422 144.422 19.1562 145.312 19.6562L144.07 22.3281ZM168.609 37.3984C169.781 37.3984 170.812 37.2812 171.703 37.0469C172.594 36.7969 173.398 36.4219 174.117 35.9219V21.0391C174.117 20.0703 174.047 19.1094 173.906 18.1562C173.766 17.1875 173.492 16.3281 173.086 15.5781C172.68 14.8125 172.117 14.1953 171.398 13.7266C170.68 13.2578 169.75 13.0234 168.609 13.0234C167.453 13.0234 166.516 13.2578 165.797 13.7266C165.078 14.1953 164.516 14.8125 164.109 15.5781C163.703 16.3281 163.43 17.1875 163.289 18.1562C163.148 19.1094 163.078 20.0703 163.078 21.0391V35.9219C163.828 36.4219 164.641 36.7969 165.516 37.0469C166.406 37.2812 167.438 37.3984 168.609 37.3984ZM168.609 9.95312C170.281 9.95312 171.68 10.25 172.805 10.8438C173.945 11.4219 174.859 12.2109 175.547 13.2109C176.25 14.2109 176.75 15.3906 177.047 16.75C177.344 18.0938 177.492 19.5234 177.492 21.0391V34.375L179.203 36.6016C178.672 37.0547 178.062 37.5156 177.375 37.9844C176.688 38.4375 175.906 38.8516 175.031 39.2266C174.172 39.5859 173.203 39.8828 172.125 40.1172C171.062 40.3516 169.891 40.4688 168.609 40.4688C167.438 40.4688 166.383 40.375 165.445 40.1875C164.508 40.0156 163.672 39.7969 162.938 39.5312C162.219 39.2656 161.594 38.9766 161.062 38.6641C160.531 38.3516 160.086 38.0625 159.727 37.7969V21.0391C159.727 19.5234 159.875 18.0938 160.172 16.75C160.469 15.3906 160.961 14.2109 161.648 13.2109C162.336 12.2109 163.242 11.4219 164.367 10.8438C165.508 10.25 166.922 9.95312 168.609 9.95312ZM182.602 20.125C183.023 19.875 183.508 19.6172 184.055 19.3516C184.617 19.0859 185.242 18.8516 185.93 18.6484C186.633 18.4297 187.391 18.2578 188.203 18.1328C189.031 17.9922 189.93 17.9219 190.898 17.9219C191.508 17.9219 192.164 17.9688 192.867 18.0625C193.57 18.1406 194.258 18.3125 194.93 18.5781C195.617 18.8438 196.258 19.2266 196.852 19.7266C197.445 20.2266 197.945 20.8906 198.352 21.7188C198.508 22.0781 198.641 22.4844 198.75 22.9375C198.859 23.3906 198.945 23.9453 199.008 24.6016C199.086 25.2578 199.141 26.0469 199.172 26.9688C199.203 27.875 199.219 28.9688 199.219 30.25V40H196.148V30.1562C196.148 29.1094 196.133 28.1953 196.102 27.4141C196.086 26.6172 196.047 25.9297 195.984 25.3516C195.922 24.7578 195.828 24.2578 195.703 23.8516C195.578 23.4297 195.422 23.0703 195.234 22.7734C195.094 22.5547 194.906 22.3281 194.672 22.0938C194.438 21.8594 194.133 21.6484 193.758 21.4609C193.398 21.2734 192.961 21.1172 192.445 20.9922C191.945 20.8672 191.352 20.8047 190.664 20.8047C189.898 20.8047 189.195 20.875 188.555 21.0156C187.93 21.1406 187.352 21.3125 186.82 21.5312V40H183.75V22.4688L182.602 20.125ZM207.68 8.57031V27.5781C207.68 28.8906 207.719 30.0469 207.797 31.0469C207.891 32.0312 208.094 32.9219 208.406 33.7188C208.734 34.5156 209.211 35.25 209.836 35.9219C210.477 36.5938 211.344 37.2656 212.438 37.9375L210.844 40.4688C209.531 39.7656 208.461 39.0078 207.633 38.1953C206.82 37.3828 206.188 36.4688 205.734 35.4531C205.297 34.4219 205 33.2656 204.844 31.9844C204.688 30.7031 204.609 29.2344 204.609 27.5781V11.5938L203.648 8.57031H207.68ZM218.883 10.4219V14.0312H215.438V10.4219H218.883ZM218.695 18.3906V40H215.625V21.4141L214.664 18.3906H218.695ZM223.477 20.125C223.898 19.875 224.383 19.6172 224.93 19.3516C225.492 19.0859 226.117 18.8516 226.805 18.6484C227.508 18.4297 228.266 18.2578 229.078 18.1328C229.906 17.9922 230.805 17.9219 231.773 17.9219C232.383 17.9219 233.039 17.9688 233.742 18.0625C234.445 18.1406 235.133 18.3125 235.805 18.5781C236.492 18.8438 237.133 19.2266 237.727 19.7266C238.32 20.2266 238.82 20.8906 239.227 21.7188C239.383 22.0781 239.516 22.4844 239.625 22.9375C239.734 23.3906 239.82 23.9453 239.883 24.6016C239.961 25.2578 240.016 26.0469 240.047 26.9688C240.078 27.875 240.094 28.9688 240.094 30.25V40H237.023V30.1562C237.023 29.1094 237.008 28.1953 236.977 27.4141C236.961 26.6172 236.922 25.9297 236.859 25.3516C236.797 24.7578 236.703 24.2578 236.578 23.8516C236.453 23.4297 236.297 23.0703 236.109 22.7734C235.969 22.5547 235.781 22.3281 235.547 22.0938C235.312 21.8594 235.008 21.6484 234.633 21.4609C234.273 21.2734 233.836 21.1172 233.32 20.9922C232.82 20.8672 232.227 20.8047 231.539 20.8047C230.773 20.8047 230.07 20.875 229.43 21.0156C228.805 21.1406 228.227 21.3125 227.695 21.5312V40H224.625V22.4688L223.477 20.125ZM256.898 27.1797C256.898 26.8359 256.891 26.4609 256.875 26.0547C256.875 25.6328 256.844 25.2109 256.781 24.7891C256.734 24.3672 256.648 23.9531 256.523 23.5469C256.414 23.125 256.25 22.75 256.031 22.4219C255.922 22.2656 255.773 22.0938 255.586 21.9062C255.414 21.7188 255.195 21.5469 254.93 21.3906C254.664 21.2188 254.344 21.0781 253.969 20.9688C253.594 20.8594 253.164 20.8047 252.68 20.8047C252.211 20.8047 251.789 20.8594 251.414 20.9688C251.055 21.0781 250.734 21.2188 250.453 21.3906C250.188 21.5469 249.961 21.7188 249.773 21.9062C249.602 22.0938 249.461 22.2656 249.352 22.4219C249.133 22.7656 248.961 23.1406 248.836 23.5469C248.727 23.9531 248.648 24.375 248.602 24.8125C248.555 25.2344 248.523 25.6484 248.508 26.0547C248.508 26.4609 248.508 26.8359 248.508 27.1797H256.898ZM248.508 30.0625V36.3438C249.258 36.8438 250.062 37.1797 250.922 37.3516C251.781 37.5234 252.586 37.6094 253.336 37.6094C254.711 37.6094 255.945 37.4609 257.039 37.1641C258.148 36.8516 259.219 36.3438 260.25 35.6406V38.8516C259.266 39.4297 258.211 39.8438 257.086 40.0938C255.961 40.3438 254.734 40.4688 253.406 40.4688C251.359 40.4688 249.562 40.1875 248.016 39.625C246.469 39.0469 245.062 38.1953 243.797 37.0703L245.438 35.1016V27.2734V26.4531C245.438 26 245.453 25.5078 245.484 24.9766C245.516 24.4297 245.586 23.875 245.695 23.3125C245.82 22.7344 246.008 22.1719 246.258 21.625C246.508 21.0625 246.852 20.5312 247.289 20.0312C247.727 19.5469 248.18 19.1641 248.648 18.8828C249.133 18.6016 249.617 18.3906 250.102 18.25C250.586 18.1094 251.055 18.0234 251.508 17.9922C251.977 17.9453 252.414 17.9219 252.82 17.9219C253.211 17.9219 253.641 17.9453 254.109 17.9922C254.578 18.0234 255.055 18.1094 255.539 18.25C256.023 18.3906 256.5 18.6016 256.969 18.8828C257.453 19.1641 257.906 19.5469 258.328 20.0312C258.828 20.6094 259.211 21.2344 259.477 21.9062C259.742 22.5625 259.93 23.2188 260.039 23.875C260.164 24.5156 260.227 25.1328 260.227 25.7266C260.242 26.3203 260.25 26.8359 260.25 27.2734V30.0625H248.508ZM268.898 35.9688V40H264.867V35.9688H268.898Z" fill="#FCFCFC"/>
<path d="M23.54 24.9642C23.2 24.2177 22.8125 23.3719 22.4362 22.3277C21.4487 19.5942 24.6037 16.6127 24.6337 16.585L22.8662 14.9535C22.6912 15.115 18.5875 18.9665 20.0637 23.0569C20.4712 24.1854 20.8787 25.0762 21.2362 25.8608C22.0705 27.3822 22.5035 29.064 22.5 30.7692C22.3535 32.1437 21.7818 33.4502 20.8532 34.5331C19.9246 35.616 18.6781 36.4294 17.2625 36.8765C17.7097 35.2585 17.703 33.5619 17.2431 31.9469C16.7832 30.3319 15.8852 28.8516 14.6337 27.6458L13.3287 26.4412L12.6012 28.0069C10.3062 32.95 7.575 35.1077 5.96875 36.0077C4.98269 35.4503 4.15407 34.6847 3.55103 33.774C2.948 32.8633 2.58778 31.8335 2.5 30.7692C2.58623 29.3167 2.98078 27.894 3.66125 26.5819C4.46825 25.0003 4.92348 23.2853 5 21.5385V19.4869C6.0925 19.9023 7.5 20.9904 7.5 23.8462V26.8496L9.67875 24.6181C13.5687 20.6327 12.7575 15.8869 11.1862 12.7242C12.3806 13.0917 13.4063 13.8195 14.098 14.7905C14.7898 15.7614 15.1075 16.919 15 18.0769H17.5C17.5 11.6881 11.7762 10 8.75 10H6.25L7.75 11.845C7.92125 12.0585 11.3275 16.3762 9.44125 20.7158C9.0215 19.6252 8.25227 18.6784 7.23574 18.001C6.21921 17.3235 5.00348 16.9476 3.75 16.9231H2.5V21.5385C2.41377 22.991 2.01922 24.4137 1.33875 25.7258C0.531745 27.3074 0.0765211 29.0224 0 30.7692C0 35.2092 4.77875 40 12.5 40C20.2212 40 25 35.2092 25 30.7692C25.0019 28.7565 24.5023 26.7703 23.54 24.9642ZM8.54375 37.1454C9.73129 36.238 10.8013 35.2133 11.7361 34.0922C12.6164 33.0365 13.3768 31.8953 14.0025 30.6862C14.6913 31.7128 15.0826 32.8857 15.1389 34.0922C15.1952 35.2987 14.9145 36.4983 14.3237 37.5758C13.7192 37.6509 13.11 37.6898 12.5 37.6923C11.1585 37.7009 9.8237 37.5163 8.54375 37.1454Z" fill="#DD0000"/>
</svg>
