<svg width="27" height="33" fill="none" xmlns="http://www.w3.org/2000/svg"><path d="M25.423 16.161c-.367-.806-.785-1.72-1.192-2.847-1.066-2.952 2.341-6.172 2.373-6.202L24.695 5.35c-.189.174-4.62 4.334-3.026 8.752.44 1.218.88 2.18 1.266 3.028a10.964 10.964 0 011.365 5.3 7.46 7.46 0 01-1.779 4.066c-1.003 1.17-2.349 2.048-3.878 2.53a9.828 9.828 0 00-.02-5.323 10.43 10.43 0 00-2.819-4.646l-1.409-1.3-.786 1.69c-2.478 5.339-5.428 7.67-7.163 8.641a7.613 7.613 0 01-2.61-2.412A6.9 6.9 0 012.7 22.43c.093-1.569.52-3.105 1.254-4.523A13.25 13.25 0 005.4 12.462v-2.215c1.18.448 2.7 1.624 2.7 4.708v3.244l2.353-2.41c4.201-4.305 3.325-9.43 1.628-12.846 1.29.397 2.398 1.183 3.145 2.232a5.263 5.263 0 01.974 3.55h2.7C18.9 1.823 12.718 0 9.45 0h-2.7l1.62 1.993c.185.23 3.864 4.893 1.827 9.58-.454-1.178-1.285-2.2-2.382-2.932A7.048 7.048 0 004.05 7.477H2.7v4.984a11.264 11.264 0 01-1.254 4.523A13.25 13.25 0 000 22.43C0 27.226 5.161 32.4 13.5 32.4S27 27.226 27 22.43a13.288 13.288 0 00-1.577-6.269zM9.227 29.317a21.414 21.414 0 003.448-3.297 20.352 20.352 0 002.448-3.679 7.198 7.198 0 011.227 3.679 7.121 7.121 0 01-.88 3.762 16.53 16.53 0 01-1.97.126 15.02 15.02 0 01-4.273-.591z" fill="#D00"/></svg>