<svg width="32" height="22" viewBox="0 0 32 22" fill="none" xmlns="http://www.w3.org/2000/svg">
<path d="M31.3299 3.4518C31.1488 2.78566 30.7959 2.18256 30.3087 1.70663C29.8079 1.21607 29.194 0.865156 28.525 0.687017C26.0213 0.00681409 15.9907 0.00681424 15.9907 0.00681424C11.809 -0.0422254 7.62837 0.173463 3.47236 0.652663C2.80337 0.843963 2.19061 1.20272 1.6886 1.69702C1.19533 2.18621 0.838043 2.78946 0.651402 3.45043C0.203053 5.94003 -0.0147857 8.46791 0.0008228 11C-0.015175 13.5298 0.202129 16.0569 0.651402 18.5496C0.834044 19.2078 1.19 19.8083 1.6846 20.2933C2.1792 20.7784 2.79511 21.1288 3.47236 21.3143C6.00935 21.9932 15.9907 21.9932 15.9907 21.9932C20.1777 22.0423 24.3636 21.8266 28.525 21.3473C29.194 21.1692 29.8079 20.8183 30.3087 20.3277C30.802 19.8426 31.1526 19.2394 31.3286 18.5825C31.7887 16.0939 32.0124 13.565 31.9965 11.0316C32.0311 8.48751 31.8077 5.94665 31.3299 3.45043V3.4518ZM12.8018 15.7051V6.29629L21.1473 11.0014L12.8018 15.7051Z" fill="#F8F8F8"/>
</svg>
